<svg xmlns="http://www.w3.org/2000/svg" viewBox="0 0 400 300" role="img" aria-label="Lunar Almond Cookie">
  <defs>
    <linearGradient id="bg" x1="0" y1="0" x2="0" y2="1">
      <stop offset="0" stop-color="#fff8ec"/>
      <stop offset="1" stop-color="#f0dfc0"/>
    </linearGradient>
    <radialGradient id="glow" cx="50%" cy="36%" r="54%">
      <stop offset="0" stop-color="#ffffff" stop-opacity=".55"/>
      <stop offset="1" stop-color="#ffffff" stop-opacity="0"/>
    </radialGradient>
    <filter id="soft" x="-25%" y="-25%" width="150%" height="150%">
      <feGaussianBlur stdDeviation="7"/>
    </filter>
  </defs>
  <rect width="400" height="300" fill="url(#bg)"/>
  <rect width="400" height="300" fill="url(#glow)"/>
  <ellipse cx="200" cy="245" rx="98" ry="15" fill="#3b1f2b" opacity=".15" filter="url(#soft)"/>
  <path d="M200 76 c44 0 84 28 84 72 c0 44 -38 76 -84 76 c-46 0 -84 -32 -84 -76 c0 -44 40 -72 84 -72 z"
        fill="#efd3a1"/>
  <path d="M200 92 c36 0 68 22 68 58 c0 34 -30 60 -68 60 c-38 0 -68 -26 -68 -60 c0 -36 32 -58 68 -58 z"
        fill="#cfa96e" opacity=".2"/>
  <path d="M150 112 c14 -16 34 -24 52 -24" stroke="#ffffff" stroke-opacity=".32"
        stroke-width="7" stroke-linecap="round" fill="none"/>
  <g>
    <ellipse cx="178" cy="128" rx="10" ry="8.2" fill="#a8763c" transform="rotate(0 178 128)"/>
    <ellipse cx="222" cy="132" rx="9" ry="7.4" fill="#7d5426" transform="rotate(18 222 132)"/>
    <ellipse cx="200" cy="170" rx="11" ry="9.0" fill="#a8763c" transform="rotate(-12 200 170)"/>
  </g>
  <circle cx="124" cy="230" r="4" fill="#cfa96e" opacity=".7"/>
  <circle cx="286" cy="223" r="3" fill="#cfa96e" opacity=".6"/>
  <circle cx="274" cy="236" r="5" fill="#cfa96e" opacity=".45"/>
</svg>
