<svg xmlns="http://www.w3.org/2000/svg" viewBox="0 0 400 300" role="img" aria-label="Cider Donut Box">
  <defs>
    <linearGradient id="bg" x1="0" y1="0" x2="0" y2="1">
      <stop offset="0" stop-color="#fff2e0"/>
      <stop offset="1" stop-color="#f2d7ae"/>
    </linearGradient>
    <radialGradient id="glow" cx="50%" cy="36%" r="54%">
      <stop offset="0" stop-color="#ffffff" stop-opacity=".55"/>
      <stop offset="1" stop-color="#ffffff" stop-opacity="0"/>
    </radialGradient>
    <filter id="soft" x="-25%" y="-25%" width="150%" height="150%">
      <feGaussianBlur stdDeviation="7"/>
    </filter>
  </defs>
  <rect width="400" height="300" fill="url(#bg)"/>
  <rect width="400" height="300" fill="url(#glow)"/>
  <ellipse cx="200" cy="245" rx="98" ry="15" fill="#3b1f2b" opacity=".15" filter="url(#soft)"/>
  <ellipse cx="200" cy="158" rx="92" ry="82" fill="#d9a05e"/>
  <path d="M108 158 c0 -46 41 -82 92 -82 s92 36 92 82 c0 12 -8 16 -14 8 c-14 -20 -42 -32 -78 -32 s-64 12 -78 32 c-6 8 -14 4 -14 -8 z" fill="#f0cf9a"/>
  <path d="M112 148 c12 -38 46 -60 88 -60 s76 22 88 60 c-10 -26 -44 -42 -88 -42 s-78 16 -88 42 z" fill="#c98a3f" opacity=".35"/>
  <ellipse cx="200" cy="160" rx="30" ry="26" fill="#d9a05e"/>
  <ellipse cx="200" cy="160" rx="24" ry="20" fill="#fffaf3"/>
  <ellipse cx="200" cy="160" rx="24" ry="20" fill="#3b1f2b" opacity=".1"/>
  <g>
    <rect x="150" y="112" width="3.4" height="9" rx="1.7" fill="#a8541f" transform="rotate(18 150 112)"/>
    <rect x="178" y="98" width="3.4" height="9" rx="1.7" fill="#e8b76a" transform="rotate(-24 178 98)"/>
    <rect x="212" y="96" width="3.4" height="9" rx="1.7" fill="#7d3d12" transform="rotate(12 212 96)"/>
    <rect x="244" y="110" width="3.4" height="9" rx="1.7" fill="#a8541f" transform="rotate(-38 244 110)"/>
    <rect x="136" y="140" width="3.4" height="9" rx="1.7" fill="#e8b76a" transform="rotate(42 136 140)"/>
    <rect x="262" y="138" width="3.4" height="9" rx="1.7" fill="#7d3d12" transform="rotate(-12 262 138)"/>
    <rect x="196" y="116" width="3.4" height="9" rx="1.7" fill="#a8541f" transform="rotate(60 196 116)"/>
    <rect x="228" y="122" width="3.4" height="9" rx="1.7" fill="#e8b76a" transform="rotate(-52 228 122)"/>
  </g>
</svg>
