<svg xmlns="http://www.w3.org/2000/svg" viewBox="0 0 400 300" role="img" aria-label="Sunshine Lemon Bar">
  <defs>
    <linearGradient id="bg" x1="0" y1="0" x2="0" y2="1">
      <stop offset="0" stop-color="#fffbe6"/>
      <stop offset="1" stop-color="#f6eaad"/>
    </linearGradient>
    <radialGradient id="glow" cx="50%" cy="36%" r="54%">
      <stop offset="0" stop-color="#ffffff" stop-opacity=".55"/>
      <stop offset="1" stop-color="#ffffff" stop-opacity="0"/>
    </radialGradient>
    <filter id="soft" x="-25%" y="-25%" width="150%" height="150%">
      <feGaussianBlur stdDeviation="7"/>
    </filter>
  </defs>
  <rect width="400" height="300" fill="url(#bg)"/>
  <rect width="400" height="300" fill="url(#glow)"/>
  <ellipse cx="200" cy="245" rx="98" ry="15" fill="#3b1f2b" opacity=".15" filter="url(#soft)"/>
  <ellipse cx="200" cy="228" rx="86" ry="18" fill="#ffffff" opacity=".65"/>
  <path d="M124 214 c0 -52 34 -94 76 -94 s76 42 76 94 c0 8 -6 12 -16 12 h-120 c-10 0 -16 -4 -16 -12 z" fill="#ffe98f"/>
  <path d="M124 214 c0 -52 34 -94 76 -94 s76 42 76 94 c0 -34 -30 -62 -76 -62 s-76 28 -76 62 z" fill="#fffdf2"/>
  <path d="M140 198 c4 -40 30 -68 60 -68 c-24 8 -42 34 -44 68 z" fill="#ffffff" opacity=".42"/>
  <path d="M124 214 h152 c0 8 -6 12 -16 12 h-120 c-10 0 -16 -4 -16 -12 z" fill="#e8c74a" opacity=".45"/>
  <ellipse cx="196" cy="124" rx="17" ry="7" fill="#ffffff" opacity=".55"/>
  <circle cx="278" cy="104" r="18" fill="#f2b134"/>
  <circle cx="278" cy="104" r="14" fill="#fffdf2"/>
    <line x1="278" y1="104" x2="278" y2="88" stroke="#f2b134" stroke-width="2.4" opacity=".7"/>
    <line x1="278" y1="104" x2="292" y2="96" stroke="#f2b134" stroke-width="2.4" opacity=".7"/>
    <line x1="278" y1="104" x2="292" y2="112" stroke="#f2b134" stroke-width="2.4" opacity=".7"/>
    <line x1="278" y1="104" x2="278" y2="120" stroke="#f2b134" stroke-width="2.4" opacity=".7"/>
    <line x1="278" y1="104" x2="264" y2="112" stroke="#f2b134" stroke-width="2.4" opacity=".7"/>
    <line x1="278" y1="104" x2="264" y2="96" stroke="#f2b134" stroke-width="2.4" opacity=".7"/>
  <circle cx="278" cy="104" r="4" fill="#f2b134" opacity=".5"/>
</svg>
